# Rhino

g object_1
v 49.700000762939453 12.699999809265137 -49.700000762939453
v 49.700000762939453 19.049999237060547 -49.700000762939453
v 50.400001525878906 12.699999809265137 -49.700000762939453
v 50.400001525878906 19.049999237060547 -49.700000762939453
v 50.400001525878906 12.699999809265137 -50.400001525878906
v 50.400001525878906 19.049999237060547 -50.400001525878906
v 49.700000762939453 12.699999809265137 -50.400001525878906
v 49.700000762939453 19.049999237060547 -50.400001525878906
f 3 1 7 5
f 8 2 4 6
f 1 3 4 2
f 3 5 6 4
f 5 7 8 6
f 7 1 2 8
g object_2
v 49.700000762939453 12.699999809265137 -33.25
v 49.700000762939453 19.049999237060547 -33.25
v 50.400001525878906 12.699999809265137 -33.25
v 50.400001525878906 19.049999237060547 -33.25
v 50.400001525878906 12.699999809265137 -33.950000762939453
v 50.400001525878906 19.049999237060547 -33.950000762939453
v 49.700000762939453 12.699999809265137 -33.950000762939453
v 49.700000762939453 19.049999237060547 -33.950000762939453
f 11 9 15 13
f 16 10 12 14
f 9 11 12 10
f 11 13 14 12
f 13 15 16 14
f 15 9 10 16
g object_3
v 49.700000762939453 12.699999809265137 -41.650001525878906
v 49.700000762939453 19.049999237060547 -41.650001525878906
v 50.400001525878906 12.699999809265137 -41.650001525878906
v 50.400001525878906 19.049999237060547 -41.650001525878906
v 50.400001525878906 12.699999809265137 -42.349998474121094
v 50.400001525878906 19.049999237060547 -42.349998474121094
v 49.700000762939453 12.699999809265137 -42.349998474121094
v 49.700000762939453 19.049999237060547 -42.349998474121094
f 19 17 23 21
f 24 18 20 22
f 17 19 20 18
f 19 21 22 20
f 21 23 24 22
f 23 17 18 24
g object_4
v 49.700000762939453 12.699999809265137 -25.200000762939453
v 49.700000762939453 19.049999237060547 -25.200000762939453
v 50.400001525878906 12.699999809265137 -25.200000762939453
v 50.400001525878906 19.049999237060547 -25.200000762939453
v 50.400001525878906 12.699999809265137 -25.899999618530273
v 50.400001525878906 19.049999237060547 -25.899999618530273
v 49.700000762939453 12.699999809265137 -25.899999618530273
v 49.700000762939453 19.049999237060547 -25.899999618530273
f 27 25 31 29
f 32 26 28 30
f 25 27 28 26
f 27 29 30 28
f 29 31 32 30
f 31 25 26 32
g object_5
v 16.450000762939453 12.699999809265137 -25.200000762939453
v 16.450000762939453 19.049999237060547 -25.200000762939453
v 17.149999618530273 12.699999809265137 -25.200000762939453
v 17.149999618530273 19.049999237060547 -25.200000762939453
v 17.149999618530273 12.699999809265137 -25.899999618530273
v 17.149999618530273 19.049999237060547 -25.899999618530273
v 16.450000762939453 12.699999809265137 -25.899999618530273
v 16.450000762939453 19.049999237060547 -25.899999618530273
f 35 33 39 37
f 40 34 36 38
f 33 35 36 34
f 35 37 38 36
f 37 39 40 38
f 39 33 34 40
g object_6
v 24.850000381469727 12.699999809265137 -25.200000762939453
v 24.850000381469727 19.049999237060547 -25.200000762939453
v 25.549999237060547 12.699999809265137 -25.200000762939453
v 25.549999237060547 19.049999237060547 -25.200000762939453
v 25.549999237060547 12.699999809265137 -25.899999618530273
v 25.549999237060547 19.049999237060547 -25.899999618530273
v 24.850000381469727 12.699999809265137 -25.899999618530273
v 24.850000381469727 19.049999237060547 -25.899999618530273
f 43 41 47 45
f 48 42 44 46
f 41 43 44 42
f 43 45 46 44
f 45 47 48 46
f 47 41 42 48
g object_7
v 33.25 12.699999809265137 -25.200000762939453
v 33.25 19.049999237060547 -25.200000762939453
v 33.950000762939453 12.699999809265137 -25.200000762939453
v 33.950000762939453 19.049999237060547 -25.200000762939453
v 33.950000762939453 12.699999809265137 -25.899999618530273
v 33.950000762939453 19.049999237060547 -25.899999618530273
v 33.25 12.699999809265137 -25.899999618530273
v 33.25 19.049999237060547 -25.899999618530273
f 51 49 55 53
f 56 50 52 54
f 49 51 52 50
f 51 53 54 52
f 53 55 56 54
f 55 49 50 56
g object_8
v 41.650001525878906 12.699999809265137 -25.200000762939453
v 41.650001525878906 19.049999237060547 -25.200000762939453
v 42.349998474121094 12.699999809265137 -25.200000762939453
v 42.349998474121094 19.049999237060547 -25.200000762939453
v 42.349998474121094 12.699999809265137 -25.899999618530273
v 42.349998474121094 19.049999237060547 -25.899999618530273
v 41.650001525878906 12.699999809265137 -25.899999618530273
v 41.650001525878906 19.049999237060547 -25.899999618530273
f 59 57 63 61
f 64 58 60 62
f 57 59 60 58
f 59 61 62 60
f 61 63 64 62
f 63 57 58 64
g object_9
v 8.3999996185302734 12.699999809265137 -25.200000762939453
v 8.3999996185302734 19.049999237060547 -25.200000762939453
v 9.1000003814697266 12.699999809265137 -25.200000762939453
v 9.1000003814697266 19.049999237060547 -25.200000762939453
v 9.1000003814697266 12.699999809265137 -25.899999618530273
v 9.1000003814697266 19.049999237060547 -25.899999618530273
v 8.3999996185302734 12.699999809265137 -25.899999618530273
v 8.3999996185302734 19.049999237060547 -25.899999618530273
f 67 65 71 69
f 72 66 68 70
f 65 67 68 66
f 67 69 70 68
f 69 71 72 70
f 71 65 66 72
g object_10
v 8.3999996185302734 12.699999809265137 -49.700000762939453
v 8.3999996185302734 19.049999237060547 -49.700000762939453
v 9.1000003814697266 12.699999809265137 -49.700000762939453
v 9.1000003814697266 19.049999237060547 -49.700000762939453
v 9.1000003814697266 12.699999809265137 -50.400001525878906
v 9.1000003814697266 19.049999237060547 -50.400001525878906
v 8.3999996185302734 12.699999809265137 -50.400001525878906
v 8.3999996185302734 19.049999237060547 -50.400001525878906
f 75 73 79 77
f 80 74 76 78
f 73 75 76 74
f 75 77 78 76
f 77 79 80 78
f 79 73 74 80
g object_11
v 8.3999996185302734 12.699999809265137 -33.25
v 8.3999996185302734 19.049999237060547 -33.25
v 9.1000003814697266 12.699999809265137 -33.25
v 9.1000003814697266 19.049999237060547 -33.25
v 9.1000003814697266 12.699999809265137 -33.950000762939453
v 9.1000003814697266 19.049999237060547 -33.950000762939453
v 8.3999996185302734 12.699999809265137 -33.950000762939453
v 8.3999996185302734 19.049999237060547 -33.950000762939453
f 83 81 87 85
f 88 82 84 86
f 81 83 84 82
f 83 85 86 84
f 85 87 88 86
f 87 81 82 88
g object_12
v 8.3999996185302734 12.699999809265137 -41.650001525878906
v 8.3999996185302734 19.049999237060547 -41.650001525878906
v 9.1000003814697266 12.699999809265137 -41.650001525878906
v 9.1000003814697266 19.049999237060547 -41.650001525878906
v 9.1000003814697266 12.699999809265137 -42.349998474121094
v 9.1000003814697266 19.049999237060547 -42.349998474121094
v 8.3999996185302734 12.699999809265137 -42.349998474121094
v 8.3999996185302734 19.049999237060547 -42.349998474121094
f 91 89 95 93
f 96 90 92 94
f 89 91 92 90
f 91 93 94 92
f 93 95 96 94
f 95 89 90 96
