# Rhino

g object_1
v 33.599998474121094 12.699999809265137 -67.199996948242188
v 33.599998474121094 51.900001525878906 -67.199996948242188
v 33.599998474121094 12.699999809265137 -75.599998474121094
v 33.599998474121094 51.900001525878906 -75.599998474121094
v 33.599998474121094 32.299999237060547 -67.199996948242188
v 33.599998474121094 32.299999237060547 -75.599998474121094
v 25.200000762939453 12.699999809265137 -75.599998474121094
v 25.200000762939453 51.900001525878906 -75.599998474121094
v 25.200000762939453 32.299999237060547 -75.599998474121094
v 25.200000762939453 12.699999809265137 -67.199996948242188
v 25.200000762939453 51.900001525878906 -67.199996948242188
v 25.200000762939453 32.299999237060547 -67.199996948242188
v 42 12.699999809265137 -58.799999237060547
v 42 51.900001525878906 -58.799999237060547
v 42 12.699999809265137 -67.199996948242188
v 42 51.900001525878906 -67.199996948242188
v 42 32.299999237060547 -58.799999237060547
v 42 32.299999237060547 -67.199996948242188
v 16.799999237060547 12.699999809265137 -67.199996948242188
v 16.799999237060547 51.900001525878906 -67.199996948242188
v 16.799999237060547 12.699999809265137 -58.799999237060547
v 16.799999237060547 51.900001525878906 -58.799999237060547
v 16.799999237060547 32.299999237060547 -58.799999237060547
v 16.799999237060547 32.299999237060547 -67.199996948242188
v 29.399999618530273 12.699999809265137 -58.799999237060547
v 29.399999618530273 51.900001525878906 -58.799999237060547
f 5 1 3 6 4 2
f 6 3 7 9 8 4
f 9 7 10 12 11 8
f 17 13 15 18 16 14
f 18 15 1 5 2 16
f 24 19 21 23 22 20
f 12 10 19 24 20 11
f 1 15 13 25 21 19 10 7 3
f 23 21 25 13 17 14 26 22
f 26 14 16 2 4 8 11 20 22
g object_2
v 16.799999237060547 12.699999809265137 -50.400001525878906
v 16.799999237060547 168.69999694824219 -50.400001525878906
v 16.799999237060547 12.699999809265137 -42
v 16.799999237060547 168.69999694824219 -42
v 42 12.699999809265137 -42
v 42 168.69999694824219 -42
v 42 12.699999809265137 -50.400001525878906
v 42 168.69999694824219 -50.400001525878906
f 27 33 31 29
f 32 34 28 30
f 27 29 30 28
f 29 31 32 30
f 31 33 34 32
f 33 27 28 34
