# Rhino

g object_1
v 0 6.3499999046325684 -58.799999237060547
v 0 12.699999809265137 -58.799999237060547
v 8.3999996185302734 6.3499999046325684 -58.799999237060547
v 8.3999996185302734 12.699999809265137 -58.799999237060547
v 8.3999996185302734 6.3499999046325684 -67.199996948242188
v 8.3999996185302734 12.699999809265137 -67.199996948242188
v 0 6.3499999046325684 -67.199996948242188
v 0 12.699999809265137 -67.199996948242188
f 3 1 7 5
f 8 2 4 6
f 1 3 4 2
f 3 5 6 4
f 5 7 8 6
f 7 1 2 8
g object_2
v 50.400001525878906 6.3499999046325684 -58.799999237060547
v 50.400001525878906 12.699999809265137 -58.799999237060547
v 58.799999237060547 6.3499999046325684 -58.799999237060547
v 58.799999237060547 12.699999809265137 -58.799999237060547
v 58.799999237060547 6.3499999046325684 -67.199996948242188
v 58.799999237060547 12.699999809265137 -67.199996948242188
v 50.400001525878906 6.3499999046325684 -67.199996948242188
v 50.400001525878906 12.699999809265137 -67.199996948242188
f 11 9 15 13
f 16 10 12 14
f 9 11 12 10
f 11 13 14 12
f 13 15 16 14
f 15 9 10 16
g object_3
v 0 6.3499999046325684 -67.199996948242188
v 0 12.699999809265137 -67.199996948242188
v 8.3999996185302734 6.3499999046325684 -67.199996948242188
v 8.3999996185302734 12.699999809265137 -67.199996948242188
v 8.3999996185302734 6.3499999046325684 -75.599998474121094
v 8.3999996185302734 12.699999809265137 -75.599998474121094
v 0 6.3499999046325684 -75.599998474121094
v 0 12.699999809265137 -75.599998474121094
f 19 17 23 21
f 24 18 20 22
f 17 19 20 18
f 19 21 22 20
f 21 23 24 22
f 23 17 18 24
g object_4
v 50.400001525878906 6.3499999046325684 -67.199996948242188
v 50.400001525878906 12.699999809265137 -67.199996948242188
v 58.799999237060547 6.3499999046325684 -67.199996948242188
v 58.799999237060547 12.699999809265137 -67.199996948242188
v 58.799999237060547 6.3499999046325684 -75.599998474121094
v 58.799999237060547 12.699999809265137 -75.599998474121094
v 50.400001525878906 6.3499999046325684 -75.599998474121094
v 50.400001525878906 12.699999809265137 -75.599998474121094
f 27 25 31 29
f 32 26 28 30
f 25 27 28 26
f 27 29 30 28
f 29 31 32 30
f 31 25 26 32
g object_5
v 42 6.3499999046325684 -67.199996948242188
v 42 12.699999809265137 -67.199996948242188
v 50.400001525878906 6.3499999046325684 -67.199996948242188
v 50.400001525878906 12.699999809265137 -67.199996948242188
v 50.400001525878906 6.3499999046325684 -75.599998474121094
v 50.400001525878906 12.699999809265137 -75.599998474121094
v 42 6.3499999046325684 -75.599998474121094
v 42 12.699999809265137 -75.599998474121094
f 35 33 39 37
f 40 34 36 38
f 33 35 36 34
f 35 37 38 36
f 37 39 40 38
f 39 33 34 40
g object_6
v 33.599998474121094 6.3499999046325684 -67.199996948242188
v 33.599998474121094 12.699999809265137 -67.199996948242188
v 42 6.3499999046325684 -67.199996948242188
v 42 12.699999809265137 -67.199996948242188
v 42 6.3499999046325684 -75.599998474121094
v 42 12.699999809265137 -75.599998474121094
v 33.599998474121094 6.3499999046325684 -75.599998474121094
v 33.599998474121094 12.699999809265137 -75.599998474121094
f 43 41 47 45
f 48 42 44 46
f 41 43 44 42
f 43 45 46 44
f 45 47 48 46
f 47 41 42 48
g object_7
v 16.799999237060547 6.3499999046325684 -67.199996948242188
v 16.799999237060547 12.699999809265137 -67.199996948242188
v 25.200000762939453 6.3499999046325684 -67.199996948242188
v 25.200000762939453 12.699999809265137 -67.199996948242188
v 25.200000762939453 6.3499999046325684 -75.599998474121094
v 25.200000762939453 12.699999809265137 -75.599998474121094
v 16.799999237060547 6.3499999046325684 -75.599998474121094
v 16.799999237060547 12.699999809265137 -75.599998474121094
f 51 49 55 53
f 56 50 52 54
f 49 51 52 50
f 51 53 54 52
f 53 55 56 54
f 55 49 50 56
g object_8
v 8.3999996185302734 6.3499999046325684 -67.199996948242188
v 8.3999996185302734 12.699999809265137 -67.199996948242188
v 16.799999237060547 6.3499999046325684 -67.199996948242188
v 16.799999237060547 12.699999809265137 -67.199996948242188
v 16.799999237060547 6.3499999046325684 -75.599998474121094
v 16.799999237060547 12.699999809265137 -75.599998474121094
v 8.3999996185302734 6.3499999046325684 -75.599998474121094
v 8.3999996185302734 12.699999809265137 -75.599998474121094
f 59 57 63 61
f 64 58 60 62
f 57 59 60 58
f 59 61 62 60
f 61 63 64 62
f 63 57 58 64
g object_9
v 0 6.3499999046325684 -75.599998474121094
v 0 12.699999809265137 -75.599998474121094
v 8.3999996185302734 6.3499999046325684 -75.599998474121094
v 8.3999996185302734 12.699999809265137 -75.599998474121094
v 8.3999996185302734 6.3499999046325684 -84
v 8.3999996185302734 12.699999809265137 -84
v 0 6.3499999046325684 -84
v 0 12.699999809265137 -84
f 67 65 71 69
f 72 66 68 70
f 65 67 68 66
f 67 69 70 68
f 69 71 72 70
f 71 65 66 72
g object_10
v 50.400001525878906 6.3499999046325684 -75.599998474121094
v 50.400001525878906 12.699999809265137 -75.599998474121094
v 58.799999237060547 6.3499999046325684 -75.599998474121094
v 58.799999237060547 12.699999809265137 -75.599998474121094
v 58.799999237060547 6.3499999046325684 -84
v 58.799999237060547 12.699999809265137 -84
v 50.400001525878906 6.3499999046325684 -84
v 50.400001525878906 12.699999809265137 -84
f 75 73 79 77
f 80 74 76 78
f 73 75 76 74
f 75 77 78 76
f 77 79 80 78
f 79 73 74 80
g object_11
v 42 6.3499999046325684 -75.599998474121094
v 42 12.699999809265137 -75.599998474121094
v 50.400001525878906 6.3499999046325684 -75.599998474121094
v 50.400001525878906 12.699999809265137 -75.599998474121094
v 50.400001525878906 6.3499999046325684 -84
v 50.400001525878906 12.699999809265137 -84
v 42 6.3499999046325684 -84
v 42 12.699999809265137 -84
f 83 81 87 85
f 88 82 84 86
f 81 83 84 82
f 83 85 86 84
f 85 87 88 86
f 87 81 82 88
g object_12
v 33.599998474121094 6.3499999046325684 -75.599998474121094
v 33.599998474121094 12.699999809265137 -75.599998474121094
v 42 6.3499999046325684 -75.599998474121094
v 42 12.699999809265137 -75.599998474121094
v 42 6.3499999046325684 -84
v 42 12.699999809265137 -84
v 33.599998474121094 6.3499999046325684 -84
v 33.599998474121094 12.699999809265137 -84
f 91 89 95 93
f 96 90 92 94
f 89 91 92 90
f 91 93 94 92
f 93 95 96 94
f 95 89 90 96
g object_13
v 25.200000762939453 6.3499999046325684 -75.599998474121094
v 25.200000762939453 12.699999809265137 -75.599998474121094
v 33.599998474121094 6.3499999046325684 -75.599998474121094
v 33.599998474121094 12.699999809265137 -75.599998474121094
v 33.599998474121094 6.3499999046325684 -84
v 33.599998474121094 12.699999809265137 -84
v 25.200000762939453 6.3499999046325684 -84
v 25.200000762939453 12.699999809265137 -84
f 99 97 103 101
f 104 98 100 102
f 97 99 100 98
f 99 101 102 100
f 101 103 104 102
f 103 97 98 104
g object_14
v 16.799999237060547 6.3499999046325684 -75.599998474121094
v 16.799999237060547 12.699999809265137 -75.599998474121094
v 25.200000762939453 6.3499999046325684 -75.599998474121094
v 25.200000762939453 12.699999809265137 -75.599998474121094
v 25.200000762939453 6.3499999046325684 -84
v 25.200000762939453 12.699999809265137 -84
v 16.799999237060547 6.3499999046325684 -84
v 16.799999237060547 12.699999809265137 -84
f 107 105 111 109
f 112 106 108 110
f 105 107 108 106
f 107 109 110 108
f 109 111 112 110
f 111 105 106 112
g object_15
v 8.3999996185302734 6.3499999046325684 -75.599998474121094
v 8.3999996185302734 12.699999809265137 -75.599998474121094
v 16.799999237060547 6.3499999046325684 -75.599998474121094
v 16.799999237060547 12.699999809265137 -75.599998474121094
v 16.799999237060547 6.3499999046325684 -84
v 16.799999237060547 12.699999809265137 -84
v 8.3999996185302734 6.3499999046325684 -84
v 8.3999996185302734 12.699999809265137 -84
f 115 113 119 117
f 120 114 116 118
f 113 115 116 114
f 115 117 118 116
f 117 119 120 118
f 119 113 114 120
g object_16
v 42 6.3499999046325684 -67.199996948242188
v 42 12.699999809265137 -67.199996948242188
v 42 6.3499999046325684 -58.799999237060547
v 42 12.699999809265137 -58.799999237060547
v 50.400001525878906 6.3499999046325684 -58.799999237060547
v 50.400001525878906 12.699999809265137 -58.799999237060547
v 50.400001525878906 6.3499999046325684 -67.199996948242188
v 50.400001525878906 12.699999809265137 -67.199996948242188
f 121 127 125 123
f 126 128 122 124
f 121 123 124 122
f 123 125 126 124
f 125 127 128 126
f 127 121 122 128
g object_17
v 8.3999996185302734 6.3499999046325684 -67.199996948242188
v 8.3999996185302734 12.699999809265137 -67.199996948242188
v 8.3999996185302734 6.3499999046325684 -58.799999237060547
v 8.3999996185302734 12.699999809265137 -58.799999237060547
v 16.799999237060547 6.3499999046325684 -58.799999237060547
v 16.799999237060547 12.699999809265137 -58.799999237060547
v 16.799999237060547 6.3499999046325684 -67.199996948242188
v 16.799999237060547 12.699999809265137 -67.199996948242188
f 129 135 133 131
f 134 136 130 132
f 129 131 132 130
f 131 133 134 132
f 133 135 136 134
f 135 129 130 136
g object_18
v 33.599998474121094 6.3499999046325684 -58.799999237060547
v 33.599998474121094 12.699999809265137 -58.799999237060547
v 33.599998474121094 6.3499999046325684 -50.400001525878906
v 33.599998474121094 12.699999809265137 -50.400001525878906
v 42 6.3499999046325684 -50.400001525878906
v 42 12.699999809265137 -50.400001525878906
v 42 6.3499999046325684 -58.799999237060547
v 42 12.699999809265137 -58.799999237060547
f 137 143 141 139
f 142 144 138 140
f 137 139 140 138
f 139 141 142 140
f 141 143 144 142
f 143 137 138 144
g object_19
v 25.200000762939453 6.3499999046325684 -58.799999237060547
v 25.200000762939453 12.699999809265137 -58.799999237060547
v 25.200000762939453 6.3499999046325684 -50.400001525878906
v 25.200000762939453 12.699999809265137 -50.400001525878906
v 33.599998474121094 6.3499999046325684 -50.400001525878906
v 33.599998474121094 12.699999809265137 -50.400001525878906
v 33.599998474121094 6.3499999046325684 -58.799999237060547
v 33.599998474121094 12.699999809265137 -58.799999237060547
f 145 151 149 147
f 150 152 146 148
f 145 147 148 146
f 147 149 150 148
f 149 151 152 150
f 151 145 146 152
g object_20
v 16.799999237060547 6.3499999046325684 -58.799999237060547
v 16.799999237060547 12.699999809265137 -58.799999237060547
v 16.799999237060547 6.3499999046325684 -50.400001525878906
v 16.799999237060547 12.699999809265137 -50.400001525878906
v 25.200000762939453 6.3499999046325684 -50.400001525878906
v 25.200000762939453 12.699999809265137 -50.400001525878906
v 25.200000762939453 6.3499999046325684 -58.799999237060547
v 25.200000762939453 12.699999809265137 -58.799999237060547
f 153 159 157 155
f 158 160 154 156
f 153 155 156 154
f 155 157 158 156
f 157 159 160 158
f 159 153 154 160
g object_21
v 42 6.3499999046325684 -84
v 42 12.699999809265137 -84
v 50.400001525878906 6.3499999046325684 -84
v 50.400001525878906 12.699999809265137 -84
v 50.400001525878906 6.3499999046325684 -92.400001525878906
v 50.400001525878906 12.699999809265137 -92.400001525878906
v 42 6.3499999046325684 -92.400001525878906
v 42 12.699999809265137 -92.400001525878906
f 163 161 167 165
f 168 162 164 166
f 161 163 164 162
f 163 165 166 164
f 165 167 168 166
f 167 161 162 168
g object_22
v 33.599998474121094 6.3499999046325684 -84
v 33.599998474121094 12.699999809265137 -84
v 42 6.3499999046325684 -84
v 42 12.699999809265137 -84
v 42 6.3499999046325684 -92.400001525878906
v 42 12.699999809265137 -92.400001525878906
v 33.599998474121094 6.3499999046325684 -92.400001525878906
v 33.599998474121094 12.699999809265137 -92.400001525878906
f 171 169 175 173
f 176 170 172 174
f 169 171 172 170
f 171 173 174 172
f 173 175 176 174
f 175 169 170 176
g object_23
v 25.200000762939453 6.3499999046325684 -84
v 25.200000762939453 12.699999809265137 -84
v 33.599998474121094 6.3499999046325684 -84
v 33.599998474121094 12.699999809265137 -84
v 33.599998474121094 6.3499999046325684 -92.400001525878906
v 33.599998474121094 12.699999809265137 -92.400001525878906
v 25.200000762939453 6.3499999046325684 -92.400001525878906
v 25.200000762939453 12.699999809265137 -92.400001525878906
f 179 177 183 181
f 184 178 180 182
f 177 179 180 178
f 179 181 182 180
f 181 183 184 182
f 183 177 178 184
g object_24
v 16.799999237060547 6.3499999046325684 -84
v 16.799999237060547 12.699999809265137 -84
v 25.200000762939453 6.3499999046325684 -84
v 25.200000762939453 12.699999809265137 -84
v 25.200000762939453 6.3499999046325684 -92.400001525878906
v 25.200000762939453 12.699999809265137 -92.400001525878906
v 16.799999237060547 6.3499999046325684 -92.400001525878906
v 16.799999237060547 12.699999809265137 -92.400001525878906
f 187 185 191 189
f 192 186 188 190
f 185 187 188 186
f 187 189 190 188
f 189 191 192 190
f 191 185 186 192
g object_25
v 8.3999996185302734 6.3499999046325684 -84
v 8.3999996185302734 12.699999809265137 -84
v 16.799999237060547 6.3499999046325684 -84
v 16.799999237060547 12.699999809265137 -84
v 16.799999237060547 6.3499999046325684 -92.400001525878906
v 16.799999237060547 12.699999809265137 -92.400001525878906
v 8.3999996185302734 6.3499999046325684 -92.400001525878906
v 8.3999996185302734 12.699999809265137 -92.400001525878906
f 195 193 199 197
f 200 194 196 198
f 193 195 196 194
f 195 197 198 196
f 197 199 200 198
f 199 193 194 200
g object_26
v 0 6.3499999046325684 -109.19999694824219
v 0 12.699999809265137 -109.19999694824219
v 8.3999996185302734 6.3499999046325684 -109.19999694824219
v 8.3999996185302734 12.699999809265137 -109.19999694824219
v 8.3999996185302734 6.3499999046325684 -117.59999847412109
v 8.3999996185302734 12.699999809265137 -117.59999847412109
v 0 6.3499999046325684 -117.59999847412109
v 0 12.699999809265137 -117.59999847412109
f 203 201 207 205
f 208 202 204 206
f 201 203 204 202
f 203 205 206 204
f 205 207 208 206
f 207 201 202 208
g object_27
v 50.400001525878906 6.3499999046325684 -109.19999694824219
v 50.400001525878906 12.699999809265137 -109.19999694824219
v 58.799999237060547 6.3499999046325684 -109.19999694824219
v 58.799999237060547 12.699999809265137 -109.19999694824219
v 58.799999237060547 6.3499999046325684 -117.59999847412109
v 58.799999237060547 12.699999809265137 -117.59999847412109
v 50.400001525878906 6.3499999046325684 -117.59999847412109
v 50.400001525878906 12.699999809265137 -117.59999847412109
f 211 209 215 213
f 216 210 212 214
f 209 211 212 210
f 211 213 214 212
f 213 215 216 214
f 215 209 210 216
g object_28
v 42 6.3499999046325684 -109.19999694824219
v 42 12.699999809265137 -109.19999694824219
v 50.400001525878906 6.3499999046325684 -109.19999694824219
v 50.400001525878906 12.699999809265137 -109.19999694824219
v 50.400001525878906 6.3499999046325684 -117.59999847412109
v 50.400001525878906 12.699999809265137 -117.59999847412109
v 42 6.3499999046325684 -117.59999847412109
v 42 12.699999809265137 -117.59999847412109
f 219 217 223 221
f 224 218 220 222
f 217 219 220 218
f 219 221 222 220
f 221 223 224 222
f 223 217 218 224
g object_29
v 33.599998474121094 6.3499999046325684 -109.19999694824219
v 33.599998474121094 12.699999809265137 -109.19999694824219
v 42 6.3499999046325684 -109.19999694824219
v 42 12.699999809265137 -109.19999694824219
v 42 6.3499999046325684 -117.59999847412109
v 42 12.699999809265137 -117.59999847412109
v 33.599998474121094 6.3499999046325684 -117.59999847412109
v 33.599998474121094 12.699999809265137 -117.59999847412109
f 227 225 231 229
f 232 226 228 230
f 225 227 228 226
f 227 229 230 228
f 229 231 232 230
f 231 225 226 232
g object_30
v 25.200000762939453 6.3499999046325684 -109.19999694824219
v 25.200000762939453 12.699999809265137 -109.19999694824219
v 33.599998474121094 6.3499999046325684 -109.19999694824219
v 33.599998474121094 12.699999809265137 -109.19999694824219
v 33.599998474121094 6.3499999046325684 -117.59999847412109
v 33.599998474121094 12.699999809265137 -117.59999847412109
v 25.200000762939453 6.3499999046325684 -117.59999847412109
v 25.200000762939453 12.699999809265137 -117.59999847412109
f 235 233 239 237
f 240 234 236 238
f 233 235 236 234
f 235 237 238 236
f 237 239 240 238
f 239 233 234 240
g object_31
v 16.799999237060547 6.3499999046325684 -109.19999694824219
v 16.799999237060547 12.699999809265137 -109.19999694824219
v 25.200000762939453 6.3499999046325684 -109.19999694824219
v 25.200000762939453 12.699999809265137 -109.19999694824219
v 25.200000762939453 6.3499999046325684 -117.59999847412109
v 25.200000762939453 12.699999809265137 -117.59999847412109
v 16.799999237060547 6.3499999046325684 -117.59999847412109
v 16.799999237060547 12.699999809265137 -117.59999847412109
f 243 241 247 245
f 248 242 244 246
f 241 243 244 242
f 243 245 246 244
f 245 247 248 246
f 247 241 242 248
g object_32
v 8.3999996185302734 6.3499999046325684 -109.19999694824219
v 8.3999996185302734 12.699999809265137 -109.19999694824219
v 16.799999237060547 6.3499999046325684 -109.19999694824219
v 16.799999237060547 12.699999809265137 -109.19999694824219
v 16.799999237060547 6.3499999046325684 -117.59999847412109
v 16.799999237060547 12.699999809265137 -117.59999847412109
v 8.3999996185302734 6.3499999046325684 -117.59999847412109
v 8.3999996185302734 12.699999809265137 -117.59999847412109
f 251 249 255 253
f 256 250 252 254
f 249 251 252 250
f 251 253 254 252
f 253 255 256 254
f 255 249 250 256
g object_33
v 0 6.3499999046325684 -117.59999847412109
v 0 12.699999809265137 -117.59999847412109
v 8.3999996185302734 6.3499999046325684 -117.59999847412109
v 8.3999996185302734 12.699999809265137 -117.59999847412109
v 8.3999996185302734 6.3499999046325684 -126
v 8.3999996185302734 12.699999809265137 -126
v 0 6.3499999046325684 -126
v 0 12.699999809265137 -126
f 259 257 263 261
f 264 258 260 262
f 257 259 260 258
f 259 261 262 260
f 261 263 264 262
f 263 257 258 264
g object_34
v 50.400001525878906 6.3499999046325684 -117.59999847412109
v 50.400001525878906 12.699999809265137 -117.59999847412109
v 58.799999237060547 6.3499999046325684 -117.59999847412109
v 58.799999237060547 12.699999809265137 -117.59999847412109
v 58.799999237060547 6.3499999046325684 -126
v 58.799999237060547 12.699999809265137 -126
v 50.400001525878906 6.3499999046325684 -126
v 50.400001525878906 12.699999809265137 -126
f 267 265 271 269
f 272 266 268 270
f 265 267 268 266
f 267 269 270 268
f 269 271 272 270
f 271 265 266 272
g object_35
v 42 6.3499999046325684 -117.59999847412109
v 42 12.699999809265137 -117.59999847412109
v 50.400001525878906 6.3499999046325684 -117.59999847412109
v 50.400001525878906 12.699999809265137 -117.59999847412109
v 50.400001525878906 6.3499999046325684 -126
v 50.400001525878906 12.699999809265137 -126
v 42 6.3499999046325684 -126
v 42 12.699999809265137 -126
f 275 273 279 277
f 280 274 276 278
f 273 275 276 274
f 275 277 278 276
f 277 279 280 278
f 279 273 274 280
g object_36
v 33.599998474121094 6.3499999046325684 -117.59999847412109
v 33.599998474121094 12.699999809265137 -117.59999847412109
v 42 6.3499999046325684 -117.59999847412109
v 42 12.699999809265137 -117.59999847412109
v 42 6.3499999046325684 -126
v 42 12.699999809265137 -126
v 33.599998474121094 6.3499999046325684 -126
v 33.599998474121094 12.699999809265137 -126
f 283 281 287 285
f 288 282 284 286
f 281 283 284 282
f 283 285 286 284
f 285 287 288 286
f 287 281 282 288
g object_37
v 25.200000762939453 6.3499999046325684 -117.59999847412109
v 25.200000762939453 12.699999809265137 -117.59999847412109
v 33.599998474121094 6.3499999046325684 -117.59999847412109
v 33.599998474121094 12.699999809265137 -117.59999847412109
v 33.599998474121094 6.3499999046325684 -126
v 33.599998474121094 12.699999809265137 -126
v 25.200000762939453 6.3499999046325684 -126
v 25.200000762939453 12.699999809265137 -126
f 291 289 295 293
f 296 290 292 294
f 289 291 292 290
f 291 293 294 292
f 293 295 296 294
f 295 289 290 296
g object_38
v 16.799999237060547 6.3499999046325684 -117.59999847412109
v 16.799999237060547 12.699999809265137 -117.59999847412109
v 25.200000762939453 6.3499999046325684 -117.59999847412109
v 25.200000762939453 12.699999809265137 -117.59999847412109
v 25.200000762939453 6.3499999046325684 -126
v 25.200000762939453 12.699999809265137 -126
v 16.799999237060547 6.3499999046325684 -126
v 16.799999237060547 12.699999809265137 -126
f 299 297 303 301
f 304 298 300 302
f 297 299 300 298
f 299 301 302 300
f 301 303 304 302
f 303 297 298 304
g object_39
v 8.3999996185302734 6.3499999046325684 -117.59999847412109
v 8.3999996185302734 12.699999809265137 -117.59999847412109
v 16.799999237060547 6.3499999046325684 -117.59999847412109
v 16.799999237060547 12.699999809265137 -117.59999847412109
v 16.799999237060547 6.3499999046325684 -126
v 16.799999237060547 12.699999809265137 -126
v 8.3999996185302734 6.3499999046325684 -126
v 8.3999996185302734 12.699999809265137 -126
f 307 305 311 309
f 312 306 308 310
f 305 307 308 306
f 307 309 310 308
f 309 311 312 310
f 311 305 306 312
g object_40
v 25.200000762939453 6.3499999046325684 -58.799999237060547
v 25.200000762939453 12.699999809265137 -58.799999237060547
v 33.599998474121094 6.3499999046325684 -58.799999237060547
v 33.599998474121094 12.699999809265137 -58.799999237060547
v 33.599998474121094 6.3499999046325684 -67.199996948242188
v 33.599998474121094 12.699999809265137 -67.199996948242188
v 25.200000762939453 6.3499999046325684 -67.199996948242188
v 25.200000762939453 12.699999809265137 -67.199996948242188
f 315 313 319 317
f 320 314 316 318
f 313 315 316 314
f 315 317 318 316
f 317 319 320 318
f 319 313 314 320
g object_41
v 25.200000762939453 6.3499999046325684 -67.199996948242188
v 25.200000762939453 12.699999809265137 -67.199996948242188
v 33.599998474121094 6.3499999046325684 -67.199996948242188
v 33.599998474121094 12.699999809265137 -67.199996948242188
v 33.599998474121094 6.3499999046325684 -75.599998474121094
v 33.599998474121094 12.699999809265137 -75.599998474121094
v 25.200000762939453 6.3499999046325684 -75.599998474121094
v 25.200000762939453 12.699999809265137 -75.599998474121094
f 323 321 327 325
f 328 322 324 326
f 321 323 324 322
f 323 325 326 324
f 325 327 328 326
f 327 321 322 328
g object_42
v 0 6.3499999046325684 -109.19999694824219
v 0 12.699999809265137 -109.19999694824219
v 0 6.3499999046325684 -100.80000305175781
v 0 12.699999809265137 -100.80000305175781
v 8.3999996185302734 6.3499999046325684 -100.80000305175781
v 8.3999996185302734 12.699999809265137 -100.80000305175781
v 8.3999996185302734 6.3499999046325684 -109.19999694824219
v 8.3999996185302734 12.699999809265137 -109.19999694824219
f 329 335 333 331
f 334 336 330 332
f 329 331 332 330
f 331 333 334 332
f 333 335 336 334
f 335 329 330 336
g object_43
v 50.400001525878906 6.3499999046325684 -109.19999694824219
v 50.400001525878906 12.699999809265137 -109.19999694824219
v 50.400001525878906 6.3499999046325684 -100.80000305175781
v 50.400001525878906 12.699999809265137 -100.80000305175781
v 58.799999237060547 6.3499999046325684 -100.80000305175781
v 58.799999237060547 12.699999809265137 -100.80000305175781
v 58.799999237060547 6.3499999046325684 -109.19999694824219
v 58.799999237060547 12.699999809265137 -109.19999694824219
f 337 343 341 339
f 342 344 338 340
f 337 339 340 338
f 339 341 342 340
f 341 343 344 342
f 343 337 338 344
g object_44
v 42 6.3499999046325684 -109.19999694824219
v 42 12.699999809265137 -109.19999694824219
v 42 6.3499999046325684 -100.80000305175781
v 42 12.699999809265137 -100.80000305175781
v 50.400001525878906 6.3499999046325684 -100.80000305175781
v 50.400001525878906 12.699999809265137 -100.80000305175781
v 50.400001525878906 6.3499999046325684 -109.19999694824219
v 50.400001525878906 12.699999809265137 -109.19999694824219
f 345 351 349 347
f 350 352 346 348
f 345 347 348 346
f 347 349 350 348
f 349 351 352 350
f 351 345 346 352
g object_45
v 33.599998474121094 6.3499999046325684 -109.19999694824219
v 33.599998474121094 12.699999809265137 -109.19999694824219
v 33.599998474121094 6.3499999046325684 -100.80000305175781
v 33.599998474121094 12.699999809265137 -100.80000305175781
v 42 6.3499999046325684 -100.80000305175781
v 42 12.699999809265137 -100.80000305175781
v 42 6.3499999046325684 -109.19999694824219
v 42 12.699999809265137 -109.19999694824219
f 353 359 357 355
f 358 360 354 356
f 353 355 356 354
f 355 357 358 356
f 357 359 360 358
f 359 353 354 360
g object_46
v 25.200000762939453 6.3499999046325684 -109.19999694824219
v 25.200000762939453 12.699999809265137 -109.19999694824219
v 25.200000762939453 6.3499999046325684 -100.80000305175781
v 25.200000762939453 12.699999809265137 -100.80000305175781
v 33.599998474121094 6.3499999046325684 -100.80000305175781
v 33.599998474121094 12.699999809265137 -100.80000305175781
v 33.599998474121094 6.3499999046325684 -109.19999694824219
v 33.599998474121094 12.699999809265137 -109.19999694824219
f 361 367 365 363
f 366 368 362 364
f 361 363 364 362
f 363 365 366 364
f 365 367 368 366
f 367 361 362 368
g object_47
v 16.799999237060547 6.3499999046325684 -109.19999694824219
v 16.799999237060547 12.699999809265137 -109.19999694824219
v 16.799999237060547 6.3499999046325684 -100.80000305175781
v 16.799999237060547 12.699999809265137 -100.80000305175781
v 25.200000762939453 6.3499999046325684 -100.80000305175781
v 25.200000762939453 12.699999809265137 -100.80000305175781
v 25.200000762939453 6.3499999046325684 -109.19999694824219
v 25.200000762939453 12.699999809265137 -109.19999694824219
f 369 375 373 371
f 374 376 370 372
f 369 371 372 370
f 371 373 374 372
f 373 375 376 374
f 375 369 370 376
g object_48
v 8.3999996185302734 6.3499999046325684 -109.19999694824219
v 8.3999996185302734 12.699999809265137 -109.19999694824219
v 8.3999996185302734 6.3499999046325684 -100.80000305175781
v 8.3999996185302734 12.699999809265137 -100.80000305175781
v 16.799999237060547 6.3499999046325684 -100.80000305175781
v 16.799999237060547 12.699999809265137 -100.80000305175781
v 16.799999237060547 6.3499999046325684 -109.19999694824219
v 16.799999237060547 12.699999809265137 -109.19999694824219
f 377 383 381 379
f 382 384 378 380
f 377 379 380 378
f 379 381 382 380
f 381 383 384 382
f 383 377 378 384
g object_49
v 0 6.3499999046325684 -100.80000305175781
v 0 12.699999809265137 -100.80000305175781
v 0 6.3499999046325684 -92.400001525878906
v 0 12.699999809265137 -92.400001525878906
v 8.3999996185302734 6.3499999046325684 -92.400001525878906
v 8.3999996185302734 12.699999809265137 -92.400001525878906
v 8.3999996185302734 6.3499999046325684 -100.80000305175781
v 8.3999996185302734 12.699999809265137 -100.80000305175781
f 385 391 389 387
f 390 392 386 388
f 385 387 388 386
f 387 389 390 388
f 389 391 392 390
f 391 385 386 392
g object_50
v 50.400001525878906 6.3499999046325684 -100.80000305175781
v 50.400001525878906 12.699999809265137 -100.80000305175781
v 50.400001525878906 6.3499999046325684 -92.400001525878906
v 50.400001525878906 12.699999809265137 -92.400001525878906
v 58.799999237060547 6.3499999046325684 -92.400001525878906
v 58.799999237060547 12.699999809265137 -92.400001525878906
v 58.799999237060547 6.3499999046325684 -100.80000305175781
v 58.799999237060547 12.699999809265137 -100.80000305175781
f 393 399 397 395
f 398 400 394 396
f 393 395 396 394
f 395 397 398 396
f 397 399 400 398
f 399 393 394 400
g object_51
v 42 6.3499999046325684 -100.80000305175781
v 42 12.699999809265137 -100.80000305175781
v 42 6.3499999046325684 -92.400001525878906
v 42 12.699999809265137 -92.400001525878906
v 50.400001525878906 6.3499999046325684 -92.400001525878906
v 50.400001525878906 12.699999809265137 -92.400001525878906
v 50.400001525878906 6.3499999046325684 -100.80000305175781
v 50.400001525878906 12.699999809265137 -100.80000305175781
f 401 407 405 403
f 406 408 402 404
f 401 403 404 402
f 403 405 406 404
f 405 407 408 406
f 407 401 402 408
g object_52
v 33.599998474121094 6.3499999046325684 -100.80000305175781
v 33.599998474121094 12.699999809265137 -100.80000305175781
v 33.599998474121094 6.3499999046325684 -92.400001525878906
v 33.599998474121094 12.699999809265137 -92.400001525878906
v 42 6.3499999046325684 -92.400001525878906
v 42 12.699999809265137 -92.400001525878906
v 42 6.3499999046325684 -100.80000305175781
v 42 12.699999809265137 -100.80000305175781
f 409 415 413 411
f 414 416 410 412
f 409 411 412 410
f 411 413 414 412
f 413 415 416 414
f 415 409 410 416
g object_53
v 25.200000762939453 6.3499999046325684 -100.80000305175781
v 25.200000762939453 12.699999809265137 -100.80000305175781
v 25.200000762939453 6.3499999046325684 -92.400001525878906
v 25.200000762939453 12.699999809265137 -92.400001525878906
v 33.599998474121094 6.3499999046325684 -92.400001525878906
v 33.599998474121094 12.699999809265137 -92.400001525878906
v 33.599998474121094 6.3499999046325684 -100.80000305175781
v 33.599998474121094 12.699999809265137 -100.80000305175781
f 417 423 421 419
f 422 424 418 420
f 417 419 420 418
f 419 421 422 420
f 421 423 424 422
f 423 417 418 424
g object_54
v 16.799999237060547 6.3499999046325684 -100.80000305175781
v 16.799999237060547 12.699999809265137 -100.80000305175781
v 16.799999237060547 6.3499999046325684 -92.400001525878906
v 16.799999237060547 12.699999809265137 -92.400001525878906
v 25.200000762939453 6.3499999046325684 -92.400001525878906
v 25.200000762939453 12.699999809265137 -92.400001525878906
v 25.200000762939453 6.3499999046325684 -100.80000305175781
v 25.200000762939453 12.699999809265137 -100.80000305175781
f 425 431 429 427
f 430 432 426 428
f 425 427 428 426
f 427 429 430 428
f 429 431 432 430
f 431 425 426 432
g object_55
v 8.3999996185302734 6.3499999046325684 -100.80000305175781
v 8.3999996185302734 12.699999809265137 -100.80000305175781
v 8.3999996185302734 6.3499999046325684 -92.400001525878906
v 8.3999996185302734 12.699999809265137 -92.400001525878906
v 16.799999237060547 6.3499999046325684 -92.400001525878906
v 16.799999237060547 12.699999809265137 -92.400001525878906
v 16.799999237060547 6.3499999046325684 -100.80000305175781
v 16.799999237060547 12.699999809265137 -100.80000305175781
f 433 439 437 435
f 438 440 434 436
f 433 435 436 434
f 435 437 438 436
f 437 439 440 438
f 439 433 434 440
g object_56
v 0 6.3499999046325684 -92.400001525878906
v 0 12.699999809265137 -92.400001525878906
v 0 6.3499999046325684 -84
v 0 12.699999809265137 -84
v 8.3999996185302734 6.3499999046325684 -84
v 8.3999996185302734 12.699999809265137 -84
v 8.3999996185302734 6.3499999046325684 -92.400001525878906
v 8.3999996185302734 12.699999809265137 -92.400001525878906
f 441 447 445 443
f 446 448 442 444
f 441 443 444 442
f 443 445 446 444
f 445 447 448 446
f 447 441 442 448
g object_57
v 50.400001525878906 6.3499999046325684 -92.400001525878906
v 50.400001525878906 12.699999809265137 -92.400001525878906
v 50.400001525878906 6.3499999046325684 -84
v 50.400001525878906 12.699999809265137 -84
v 58.799999237060547 6.3499999046325684 -84
v 58.799999237060547 12.699999809265137 -84
v 58.799999237060547 6.3499999046325684 -92.400001525878906
v 58.799999237060547 12.699999809265137 -92.400001525878906
f 449 455 453 451
f 454 456 450 452
f 449 451 452 450
f 451 453 454 452
f 453 455 456 454
f 455 449 450 456
g object_58
v 33.599998474121094 6.3499999046325684 -67.199996948242188
v 33.599998474121094 12.699999809265137 -67.199996948242188
v 33.599998474121094 6.3499999046325684 -58.799999237060547
v 33.599998474121094 12.699999809265137 -58.799999237060547
v 42 6.3499999046325684 -58.799999237060547
v 42 12.699999809265137 -58.799999237060547
v 42 6.3499999046325684 -67.199996948242188
v 42 12.699999809265137 -67.199996948242188
f 457 463 461 459
f 462 464 458 460
f 457 459 460 458
f 459 461 462 460
f 461 463 464 462
f 463 457 458 464
g object_59
v 16.799999237060547 6.3499999046325684 -67.199996948242188
v 16.799999237060547 12.699999809265137 -67.199996948242188
v 16.799999237060547 6.3499999046325684 -58.799999237060547
v 16.799999237060547 12.699999809265137 -58.799999237060547
v 25.200000762939453 6.3499999046325684 -58.799999237060547
v 25.200000762939453 12.699999809265137 -58.799999237060547
v 25.200000762939453 6.3499999046325684 -67.199996948242188
v 25.200000762939453 12.699999809265137 -67.199996948242188
f 465 471 469 467
f 470 472 466 468
f 465 467 468 466
f 467 469 470 468
f 469 471 472 470
f 471 465 466 472
g object_60
v 0 6.3499999046325684 -58.799999237060547
v 0 12.699999809265137 -58.799999237060547
v 0 6.3499999046325684 -50.400001525878906
v 0 12.699999809265137 -50.400001525878906
v 8.3999996185302734 6.3499999046325684 -50.400001525878906
v 8.3999996185302734 12.699999809265137 -50.400001525878906
v 8.3999996185302734 6.3499999046325684 -58.799999237060547
v 8.3999996185302734 12.699999809265137 -58.799999237060547
f 473 479 477 475
f 478 480 474 476
f 473 475 476 474
f 475 477 478 476
f 477 479 480 478
f 479 473 474 480
g object_61
v 50.400001525878906 6.3499999046325684 -58.799999237060547
v 50.400001525878906 12.699999809265137 -58.799999237060547
v 50.400001525878906 6.3499999046325684 -50.400001525878906
v 50.400001525878906 12.699999809265137 -50.400001525878906
v 58.799999237060547 6.3499999046325684 -50.400001525878906
v 58.799999237060547 12.699999809265137 -50.400001525878906
v 58.799999237060547 6.3499999046325684 -58.799999237060547
v 58.799999237060547 12.699999809265137 -58.799999237060547
f 481 487 485 483
f 486 488 482 484
f 481 483 484 482
f 483 485 486 484
f 485 487 488 486
f 487 481 482 488
g object_62
v 42 6.3499999046325684 -58.799999237060547
v 42 12.699999809265137 -58.799999237060547
v 42 6.3499999046325684 -50.400001525878906
v 42 12.699999809265137 -50.400001525878906
v 50.400001525878906 6.3499999046325684 -50.400001525878906
v 50.400001525878906 12.699999809265137 -50.400001525878906
v 50.400001525878906 6.3499999046325684 -58.799999237060547
v 50.400001525878906 12.699999809265137 -58.799999237060547
f 489 495 493 491
f 494 496 490 492
f 489 491 492 490
f 491 493 494 492
f 493 495 496 494
f 495 489 490 496
g object_63
v 8.3999996185302734 6.3499999046325684 -58.799999237060547
v 8.3999996185302734 12.699999809265137 -58.799999237060547
v 8.3999996185302734 6.3499999046325684 -50.400001525878906
v 8.3999996185302734 12.699999809265137 -50.400001525878906
v 16.799999237060547 6.3499999046325684 -50.400001525878906
v 16.799999237060547 12.699999809265137 -50.400001525878906
v 16.799999237060547 6.3499999046325684 -58.799999237060547
v 16.799999237060547 12.699999809265137 -58.799999237060547
f 497 503 501 499
f 502 504 498 500
f 497 499 500 498
f 499 501 502 500
f 501 503 504 502
f 503 497 498 504
g object_64
v 0 6.3499999046325684 -50.400001525878906
v 0 12.699999809265137 -50.400001525878906
v 0 6.3499999046325684 -42
v 0 12.699999809265137 -42
v 8.3999996185302734 6.3499999046325684 -42
v 8.3999996185302734 12.699999809265137 -42
v 8.3999996185302734 6.3499999046325684 -50.400001525878906
v 8.3999996185302734 12.699999809265137 -50.400001525878906
f 505 511 509 507
f 510 512 506 508
f 505 507 508 506
f 507 509 510 508
f 509 511 512 510
f 511 505 506 512
g object_65
v 50.400001525878906 6.3499999046325684 -50.400001525878906
v 50.400001525878906 12.699999809265137 -50.400001525878906
v 50.400001525878906 6.3499999046325684 -42
v 50.400001525878906 12.699999809265137 -42
v 58.799999237060547 6.3499999046325684 -42
v 58.799999237060547 12.699999809265137 -42
v 58.799999237060547 6.3499999046325684 -50.400001525878906
v 58.799999237060547 12.699999809265137 -50.400001525878906
f 513 519 517 515
f 518 520 514 516
f 513 515 516 514
f 515 517 518 516
f 517 519 520 518
f 519 513 514 520
g object_66
v 42 6.3499999046325684 -50.400001525878906
v 42 12.699999809265137 -50.400001525878906
v 42 6.3499999046325684 -42
v 42 12.699999809265137 -42
v 50.400001525878906 6.3499999046325684 -42
v 50.400001525878906 12.699999809265137 -42
v 50.400001525878906 6.3499999046325684 -50.400001525878906
v 50.400001525878906 12.699999809265137 -50.400001525878906
f 521 527 525 523
f 526 528 522 524
f 521 523 524 522
f 523 525 526 524
f 525 527 528 526
f 527 521 522 528
g object_67
v 33.599998474121094 6.3499999046325684 -50.400001525878906
v 33.599998474121094 12.699999809265137 -50.400001525878906
v 33.599998474121094 6.3499999046325684 -42
v 33.599998474121094 12.699999809265137 -42
v 42 6.3499999046325684 -42
v 42 12.699999809265137 -42
v 42 6.3499999046325684 -50.400001525878906
v 42 12.699999809265137 -50.400001525878906
f 529 535 533 531
f 534 536 530 532
f 529 531 532 530
f 531 533 534 532
f 533 535 536 534
f 535 529 530 536
g object_68
v 25.200000762939453 6.3499999046325684 -50.400001525878906
v 25.200000762939453 12.699999809265137 -50.400001525878906
v 25.200000762939453 6.3499999046325684 -42
v 25.200000762939453 12.699999809265137 -42
v 33.599998474121094 6.3499999046325684 -42
v 33.599998474121094 12.699999809265137 -42
v 33.599998474121094 6.3499999046325684 -50.400001525878906
v 33.599998474121094 12.699999809265137 -50.400001525878906
f 537 543 541 539
f 542 544 538 540
f 537 539 540 538
f 539 541 542 540
f 541 543 544 542
f 543 537 538 544
g object_69
v 16.799999237060547 6.3499999046325684 -50.400001525878906
v 16.799999237060547 12.699999809265137 -50.400001525878906
v 16.799999237060547 6.3499999046325684 -42
v 16.799999237060547 12.699999809265137 -42
v 25.200000762939453 6.3499999046325684 -42
v 25.200000762939453 12.699999809265137 -42
v 25.200000762939453 6.3499999046325684 -50.400001525878906
v 25.200000762939453 12.699999809265137 -50.400001525878906
f 545 551 549 547
f 550 552 546 548
f 545 547 548 546
f 547 549 550 548
f 549 551 552 550
f 551 545 546 552
g object_70
v 8.3999996185302734 6.3499999046325684 -50.400001525878906
v 8.3999996185302734 12.699999809265137 -50.400001525878906
v 8.3999996185302734 6.3499999046325684 -42
v 8.3999996185302734 12.699999809265137 -42
v 16.799999237060547 6.3499999046325684 -42
v 16.799999237060547 12.699999809265137 -42
v 16.799999237060547 6.3499999046325684 -50.400001525878906
v 16.799999237060547 12.699999809265137 -50.400001525878906
f 553 559 557 555
f 558 560 554 556
f 553 555 556 554
f 555 557 558 556
f 557 559 560 558
f 559 553 554 560
g object_71
v 0 6.3499999046325684 -42
v 0 12.699999809265137 -42
v 0 6.3499999046325684 -33.599998474121094
v 0 12.699999809265137 -33.599998474121094
v 8.3999996185302734 6.3499999046325684 -33.599998474121094
v 8.3999996185302734 12.699999809265137 -33.599998474121094
v 8.3999996185302734 6.3499999046325684 -42
v 8.3999996185302734 12.699999809265137 -42
f 561 567 565 563
f 566 568 562 564
f 561 563 564 562
f 563 565 566 564
f 565 567 568 566
f 567 561 562 568
g object_72
v 50.400001525878906 6.3499999046325684 -42
v 50.400001525878906 12.699999809265137 -42
v 50.400001525878906 6.3499999046325684 -33.599998474121094
v 50.400001525878906 12.699999809265137 -33.599998474121094
v 58.799999237060547 6.3499999046325684 -33.599998474121094
v 58.799999237060547 12.699999809265137 -33.599998474121094
v 58.799999237060547 6.3499999046325684 -42
v 58.799999237060547 12.699999809265137 -42
f 569 575 573 571
f 574 576 570 572
f 569 571 572 570
f 571 573 574 572
f 573 575 576 574
f 575 569 570 576
g object_73
v 42 6.3499999046325684 -42
v 42 12.699999809265137 -42
v 42 6.3499999046325684 -33.599998474121094
v 42 12.699999809265137 -33.599998474121094
v 50.400001525878906 6.3499999046325684 -33.599998474121094
v 50.400001525878906 12.699999809265137 -33.599998474121094
v 50.400001525878906 6.3499999046325684 -42
v 50.400001525878906 12.699999809265137 -42
f 577 583 581 579
f 582 584 578 580
f 577 579 580 578
f 579 581 582 580
f 581 583 584 582
f 583 577 578 584
g object_74
v 33.599998474121094 6.3499999046325684 -42
v 33.599998474121094 12.699999809265137 -42
v 33.599998474121094 6.3499999046325684 -33.599998474121094
v 33.599998474121094 12.699999809265137 -33.599998474121094
v 42 6.3499999046325684 -33.599998474121094
v 42 12.699999809265137 -33.599998474121094
v 42 6.3499999046325684 -42
v 42 12.699999809265137 -42
f 585 591 589 587
f 590 592 586 588
f 585 587 588 586
f 587 589 590 588
f 589 591 592 590
f 591 585 586 592
g object_75
v 25.200000762939453 6.3499999046325684 -42
v 25.200000762939453 12.699999809265137 -42
v 25.200000762939453 6.3499999046325684 -33.599998474121094
v 25.200000762939453 12.699999809265137 -33.599998474121094
v 33.599998474121094 6.3499999046325684 -33.599998474121094
v 33.599998474121094 12.699999809265137 -33.599998474121094
v 33.599998474121094 6.3499999046325684 -42
v 33.599998474121094 12.699999809265137 -42
f 593 599 597 595
f 598 600 594 596
f 593 595 596 594
f 595 597 598 596
f 597 599 600 598
f 599 593 594 600
g object_76
v 16.799999237060547 6.3499999046325684 -42
v 16.799999237060547 12.699999809265137 -42
v 16.799999237060547 6.3499999046325684 -33.599998474121094
v 16.799999237060547 12.699999809265137 -33.599998474121094
v 25.200000762939453 6.3499999046325684 -33.599998474121094
v 25.200000762939453 12.699999809265137 -33.599998474121094
v 25.200000762939453 6.3499999046325684 -42
v 25.200000762939453 12.699999809265137 -42
f 601 607 605 603
f 606 608 602 604
f 601 603 604 602
f 603 605 606 604
f 605 607 608 606
f 607 601 602 608
g object_77
v 8.3999996185302734 6.3499999046325684 -42
v 8.3999996185302734 12.699999809265137 -42
v 8.3999996185302734 6.3499999046325684 -33.599998474121094
v 8.3999996185302734 12.699999809265137 -33.599998474121094
v 16.799999237060547 6.3499999046325684 -33.599998474121094
v 16.799999237060547 12.699999809265137 -33.599998474121094
v 16.799999237060547 6.3499999046325684 -42
v 16.799999237060547 12.699999809265137 -42
f 609 615 613 611
f 614 616 610 612
f 609 611 612 610
f 611 613 614 612
f 613 615 616 614
f 615 609 610 616
g object_78
v 0 6.3499999046325684 -33.599998474121094
v 0 12.699999809265137 -33.599998474121094
v 0 6.3499999046325684 -25.200000762939453
v 0 12.699999809265137 -25.200000762939453
v 8.3999996185302734 6.3499999046325684 -25.200000762939453
v 8.3999996185302734 12.699999809265137 -25.200000762939453
v 8.3999996185302734 6.3499999046325684 -33.599998474121094
v 8.3999996185302734 12.699999809265137 -33.599998474121094
f 617 623 621 619
f 622 624 618 620
f 617 619 620 618
f 619 621 622 620
f 621 623 624 622
f 623 617 618 624
g object_79
v 50.400001525878906 6.3499999046325684 -33.599998474121094
v 50.400001525878906 12.699999809265137 -33.599998474121094
v 50.400001525878906 6.3499999046325684 -25.200000762939453
v 50.400001525878906 12.699999809265137 -25.200000762939453
v 58.799999237060547 6.3499999046325684 -25.200000762939453
v 58.799999237060547 12.699999809265137 -25.200000762939453
v 58.799999237060547 6.3499999046325684 -33.599998474121094
v 58.799999237060547 12.699999809265137 -33.599998474121094
f 625 631 629 627
f 630 632 626 628
f 625 627 628 626
f 627 629 630 628
f 629 631 632 630
f 631 625 626 632
g object_80
v 42 6.3499999046325684 -33.599998474121094
v 42 12.699999809265137 -33.599998474121094
v 42 6.3499999046325684 -25.200000762939453
v 42 12.699999809265137 -25.200000762939453
v 50.400001525878906 6.3499999046325684 -25.200000762939453
v 50.400001525878906 12.699999809265137 -25.200000762939453
v 50.400001525878906 6.3499999046325684 -33.599998474121094
v 50.400001525878906 12.699999809265137 -33.599998474121094
f 633 639 637 635
f 638 640 634 636
f 633 635 636 634
f 635 637 638 636
f 637 639 640 638
f 639 633 634 640
g object_81
v 33.599998474121094 6.3499999046325684 -33.599998474121094
v 33.599998474121094 12.699999809265137 -33.599998474121094
v 33.599998474121094 6.3499999046325684 -25.200000762939453
v 33.599998474121094 12.699999809265137 -25.200000762939453
v 42 6.3499999046325684 -25.200000762939453
v 42 12.699999809265137 -25.200000762939453
v 42 6.3499999046325684 -33.599998474121094
v 42 12.699999809265137 -33.599998474121094
f 641 647 645 643
f 646 648 642 644
f 641 643 644 642
f 643 645 646 644
f 645 647 648 646
f 647 641 642 648
g object_82
v 25.200000762939453 6.3499999046325684 -33.599998474121094
v 25.200000762939453 12.699999809265137 -33.599998474121094
v 25.200000762939453 6.3499999046325684 -25.200000762939453
v 25.200000762939453 12.699999809265137 -25.200000762939453
v 33.599998474121094 6.3499999046325684 -25.200000762939453
v 33.599998474121094 12.699999809265137 -25.200000762939453
v 33.599998474121094 6.3499999046325684 -33.599998474121094
v 33.599998474121094 12.699999809265137 -33.599998474121094
f 649 655 653 651
f 654 656 650 652
f 649 651 652 650
f 651 653 654 652
f 653 655 656 654
f 655 649 650 656
g object_83
v 16.799999237060547 6.3499999046325684 -33.599998474121094
v 16.799999237060547 12.699999809265137 -33.599998474121094
v 16.799999237060547 6.3499999046325684 -25.200000762939453
v 16.799999237060547 12.699999809265137 -25.200000762939453
v 25.200000762939453 6.3499999046325684 -25.200000762939453
v 25.200000762939453 12.699999809265137 -25.200000762939453
v 25.200000762939453 6.3499999046325684 -33.599998474121094
v 25.200000762939453 12.699999809265137 -33.599998474121094
f 657 663 661 659
f 662 664 658 660
f 657 659 660 658
f 659 661 662 660
f 661 663 664 662
f 663 657 658 664
g object_84
v 8.3999996185302734 6.3499999046325684 -33.599998474121094
v 8.3999996185302734 12.699999809265137 -33.599998474121094
v 8.3999996185302734 6.3499999046325684 -25.200000762939453
v 8.3999996185302734 12.699999809265137 -25.200000762939453
v 16.799999237060547 6.3499999046325684 -25.200000762939453
v 16.799999237060547 12.699999809265137 -25.200000762939453
v 16.799999237060547 6.3499999046325684 -33.599998474121094
v 16.799999237060547 12.699999809265137 -33.599998474121094
f 665 671 669 667
f 670 672 666 668
f 665 667 668 666
f 667 669 670 668
f 669 671 672 670
f 671 665 666 672
g object_85
v 0 6.3499999046325684 0
v 0 12.699999809265137 0
v 8.3999996185302734 6.3499999046325684 0
v 8.3999996185302734 12.699999809265137 0
v 8.3999996185302734 6.3499999046325684 -8.3999996185302734
v 8.3999996185302734 12.699999809265137 -8.3999996185302734
v 0 6.3499999046325684 -8.3999996185302734
v 0 12.699999809265137 -8.3999996185302734
f 675 673 679 677
f 680 674 676 678
f 673 675 676 674
f 675 677 678 676
f 677 679 680 678
f 679 673 674 680
g object_86
v 50.400001525878906 6.3499999046325684 0
v 50.400001525878906 12.699999809265137 0
v 58.799999237060547 6.3499999046325684 0
v 58.799999237060547 12.699999809265137 0
v 58.799999237060547 6.3499999046325684 -8.3999996185302734
v 58.799999237060547 12.699999809265137 -8.3999996185302734
v 50.400001525878906 6.3499999046325684 -8.3999996185302734
v 50.400001525878906 12.699999809265137 -8.3999996185302734
f 683 681 687 685
f 688 682 684 686
f 681 683 684 682
f 683 685 686 684
f 685 687 688 686
f 687 681 682 688
g object_87
v 42 6.3499999046325684 0
v 42 12.699999809265137 0
v 50.400001525878906 6.3499999046325684 0
v 50.400001525878906 12.699999809265137 0
v 50.400001525878906 6.3499999046325684 -8.3999996185302734
v 50.400001525878906 12.699999809265137 -8.3999996185302734
v 42 6.3499999046325684 -8.3999996185302734
v 42 12.699999809265137 -8.3999996185302734
f 691 689 695 693
f 696 690 692 694
f 689 691 692 690
f 691 693 694 692
f 693 695 696 694
f 695 689 690 696
g object_88
v 33.599998474121094 6.3499999046325684 0
v 33.599998474121094 12.699999809265137 0
v 42 6.3499999046325684 0
v 42 12.699999809265137 0
v 42 6.3499999046325684 -8.3999996185302734
v 42 12.699999809265137 -8.3999996185302734
v 33.599998474121094 6.3499999046325684 -8.3999996185302734
v 33.599998474121094 12.699999809265137 -8.3999996185302734
f 699 697 703 701
f 704 698 700 702
f 697 699 700 698
f 699 701 702 700
f 701 703 704 702
f 703 697 698 704
g object_89
v 25.200000762939453 6.3499999046325684 0
v 25.200000762939453 12.699999809265137 0
v 33.599998474121094 6.3499999046325684 0
v 33.599998474121094 12.699999809265137 0
v 33.599998474121094 6.3499999046325684 -8.3999996185302734
v 33.599998474121094 12.699999809265137 -8.3999996185302734
v 25.200000762939453 6.3499999046325684 -8.3999996185302734
v 25.200000762939453 12.699999809265137 -8.3999996185302734
f 707 705 711 709
f 712 706 708 710
f 705 707 708 706
f 707 709 710 708
f 709 711 712 710
f 711 705 706 712
g object_90
v 16.799999237060547 6.3499999046325684 0
v 16.799999237060547 12.699999809265137 0
v 25.200000762939453 6.3499999046325684 0
v 25.200000762939453 12.699999809265137 0
v 25.200000762939453 6.3499999046325684 -8.3999996185302734
v 25.200000762939453 12.699999809265137 -8.3999996185302734
v 16.799999237060547 6.3499999046325684 -8.3999996185302734
v 16.799999237060547 12.699999809265137 -8.3999996185302734
f 715 713 719 717
f 720 714 716 718
f 713 715 716 714
f 715 717 718 716
f 717 719 720 718
f 719 713 714 720
g object_91
v 8.3999996185302734 6.3499999046325684 0
v 8.3999996185302734 12.699999809265137 0
v 16.799999237060547 6.3499999046325684 0
v 16.799999237060547 12.699999809265137 0
v 16.799999237060547 6.3499999046325684 -8.3999996185302734
v 16.799999237060547 12.699999809265137 -8.3999996185302734
v 8.3999996185302734 6.3499999046325684 -8.3999996185302734
v 8.3999996185302734 12.699999809265137 -8.3999996185302734
f 723 721 727 725
f 728 722 724 726
f 721 723 724 722
f 723 725 726 724
f 725 727 728 726
f 727 721 722 728
g object_92
v 0 6.3499999046325684 -8.3999996185302734
v 0 12.699999809265137 -8.3999996185302734
v 8.3999996185302734 6.3499999046325684 -8.3999996185302734
v 8.3999996185302734 12.699999809265137 -8.3999996185302734
v 8.3999996185302734 6.3499999046325684 -16.799999237060547
v 8.3999996185302734 12.699999809265137 -16.799999237060547
v 0 6.3499999046325684 -16.799999237060547
v 0 12.699999809265137 -16.799999237060547
f 731 729 735 733
f 736 730 732 734
f 729 731 732 730
f 731 733 734 732
f 733 735 736 734
f 735 729 730 736
g object_93
v 50.400001525878906 6.3499999046325684 -8.3999996185302734
v 50.400001525878906 12.699999809265137 -8.3999996185302734
v 58.799999237060547 6.3499999046325684 -8.3999996185302734
v 58.799999237060547 12.699999809265137 -8.3999996185302734
v 58.799999237060547 6.3499999046325684 -16.799999237060547
v 58.799999237060547 12.699999809265137 -16.799999237060547
v 50.400001525878906 6.3499999046325684 -16.799999237060547
v 50.400001525878906 12.699999809265137 -16.799999237060547
f 739 737 743 741
f 744 738 740 742
f 737 739 740 738
f 739 741 742 740
f 741 743 744 742
f 743 737 738 744
g object_94
v 42 6.3499999046325684 -8.3999996185302734
v 42 12.699999809265137 -8.3999996185302734
v 50.400001525878906 6.3499999046325684 -8.3999996185302734
v 50.400001525878906 12.699999809265137 -8.3999996185302734
v 50.400001525878906 6.3499999046325684 -16.799999237060547
v 50.400001525878906 12.699999809265137 -16.799999237060547
v 42 6.3499999046325684 -16.799999237060547
v 42 12.699999809265137 -16.799999237060547
f 747 745 751 749
f 752 746 748 750
f 745 747 748 746
f 747 749 750 748
f 749 751 752 750
f 751 745 746 752
g object_95
v 33.599998474121094 6.3499999046325684 -8.3999996185302734
v 33.599998474121094 12.699999809265137 -8.3999996185302734
v 42 6.3499999046325684 -8.3999996185302734
v 42 12.699999809265137 -8.3999996185302734
v 42 6.3499999046325684 -16.799999237060547
v 42 12.699999809265137 -16.799999237060547
v 33.599998474121094 6.3499999046325684 -16.799999237060547
v 33.599998474121094 12.699999809265137 -16.799999237060547
f 755 753 759 757
f 760 754 756 758
f 753 755 756 754
f 755 757 758 756
f 757 759 760 758
f 759 753 754 760
g object_96
v 25.200000762939453 6.3499999046325684 -8.3999996185302734
v 25.200000762939453 12.699999809265137 -8.3999996185302734
v 33.599998474121094 6.3499999046325684 -8.3999996185302734
v 33.599998474121094 12.699999809265137 -8.3999996185302734
v 33.599998474121094 6.3499999046325684 -16.799999237060547
v 33.599998474121094 12.699999809265137 -16.799999237060547
v 25.200000762939453 6.3499999046325684 -16.799999237060547
v 25.200000762939453 12.699999809265137 -16.799999237060547
f 763 761 767 765
f 768 762 764 766
f 761 763 764 762
f 763 765 766 764
f 765 767 768 766
f 767 761 762 768
g object_97
v 16.799999237060547 6.3499999046325684 -8.3999996185302734
v 16.799999237060547 12.699999809265137 -8.3999996185302734
v 25.200000762939453 6.3499999046325684 -8.3999996185302734
v 25.200000762939453 12.699999809265137 -8.3999996185302734
v 25.200000762939453 6.3499999046325684 -16.799999237060547
v 25.200000762939453 12.699999809265137 -16.799999237060547
v 16.799999237060547 6.3499999046325684 -16.799999237060547
v 16.799999237060547 12.699999809265137 -16.799999237060547
f 771 769 775 773
f 776 770 772 774
f 769 771 772 770
f 771 773 774 772
f 773 775 776 774
f 775 769 770 776
g object_98
v 8.3999996185302734 6.3499999046325684 -8.3999996185302734
v 8.3999996185302734 12.699999809265137 -8.3999996185302734
v 16.799999237060547 6.3499999046325684 -8.3999996185302734
v 16.799999237060547 12.699999809265137 -8.3999996185302734
v 16.799999237060547 6.3499999046325684 -16.799999237060547
v 16.799999237060547 12.699999809265137 -16.799999237060547
v 8.3999996185302734 6.3499999046325684 -16.799999237060547
v 8.3999996185302734 12.699999809265137 -16.799999237060547
f 779 777 783 781
f 784 778 780 782
f 777 779 780 778
f 779 781 782 780
f 781 783 784 782
f 783 777 778 784
g object_99
v 0 6.3499999046325684 -16.799999237060547
v 0 12.699999809265137 -16.799999237060547
v 8.3999996185302734 6.3499999046325684 -16.799999237060547
v 8.3999996185302734 12.699999809265137 -16.799999237060547
v 8.3999996185302734 6.3499999046325684 -25.200000762939453
v 8.3999996185302734 12.699999809265137 -25.200000762939453
v 0 6.3499999046325684 -25.200000762939453
v 0 12.699999809265137 -25.200000762939453
f 787 785 791 789
f 792 786 788 790
f 785 787 788 786
f 787 789 790 788
f 789 791 792 790
f 791 785 786 792
g object_100
v 50.400001525878906 6.3499999046325684 -16.799999237060547
v 50.400001525878906 12.699999809265137 -16.799999237060547
v 58.799999237060547 6.3499999046325684 -16.799999237060547
v 58.799999237060547 12.699999809265137 -16.799999237060547
v 58.799999237060547 6.3499999046325684 -25.200000762939453
v 58.799999237060547 12.699999809265137 -25.200000762939453
v 50.400001525878906 6.3499999046325684 -25.200000762939453
v 50.400001525878906 12.699999809265137 -25.200000762939453
f 795 793 799 797
f 800 794 796 798
f 793 795 796 794
f 795 797 798 796
f 797 799 800 798
f 799 793 794 800
g object_101
v 42 6.3499999046325684 -16.799999237060547
v 42 12.699999809265137 -16.799999237060547
v 50.400001525878906 6.3499999046325684 -16.799999237060547
v 50.400001525878906 12.699999809265137 -16.799999237060547
v 50.400001525878906 6.3499999046325684 -25.200000762939453
v 50.400001525878906 12.699999809265137 -25.200000762939453
v 42 6.3499999046325684 -25.200000762939453
v 42 12.699999809265137 -25.200000762939453
f 803 801 807 805
f 808 802 804 806
f 801 803 804 802
f 803 805 806 804
f 805 807 808 806
f 807 801 802 808
g object_102
v 33.599998474121094 6.3499999046325684 -16.799999237060547
v 33.599998474121094 12.699999809265137 -16.799999237060547
v 42 6.3499999046325684 -16.799999237060547
v 42 12.699999809265137 -16.799999237060547
v 42 6.3499999046325684 -25.200000762939453
v 42 12.699999809265137 -25.200000762939453
v 33.599998474121094 6.3499999046325684 -25.200000762939453
v 33.599998474121094 12.699999809265137 -25.200000762939453
f 811 809 815 813
f 816 810 812 814
f 809 811 812 810
f 811 813 814 812
f 813 815 816 814
f 815 809 810 816
g object_103
v 25.200000762939453 6.3499999046325684 -16.799999237060547
v 25.200000762939453 12.699999809265137 -16.799999237060547
v 33.599998474121094 6.3499999046325684 -16.799999237060547
v 33.599998474121094 12.699999809265137 -16.799999237060547
v 33.599998474121094 6.3499999046325684 -25.200000762939453
v 33.599998474121094 12.699999809265137 -25.200000762939453
v 25.200000762939453 6.3499999046325684 -25.200000762939453
v 25.200000762939453 12.699999809265137 -25.200000762939453
f 819 817 823 821
f 824 818 820 822
f 817 819 820 818
f 819 821 822 820
f 821 823 824 822
f 823 817 818 824
g object_104
v 16.799999237060547 6.3499999046325684 -16.799999237060547
v 16.799999237060547 12.699999809265137 -16.799999237060547
v 25.200000762939453 6.3499999046325684 -16.799999237060547
v 25.200000762939453 12.699999809265137 -16.799999237060547
v 25.200000762939453 6.3499999046325684 -25.200000762939453
v 25.200000762939453 12.699999809265137 -25.200000762939453
v 16.799999237060547 6.3499999046325684 -25.200000762939453
v 16.799999237060547 12.699999809265137 -25.200000762939453
f 827 825 831 829
f 832 826 828 830
f 825 827 828 826
f 827 829 830 828
f 829 831 832 830
f 831 825 826 832
g object_105
v 8.3999996185302734 6.3499999046325684 -16.799999237060547
v 8.3999996185302734 12.699999809265137 -16.799999237060547
v 16.799999237060547 6.3499999046325684 -16.799999237060547
v 16.799999237060547 12.699999809265137 -16.799999237060547
v 16.799999237060547 6.3499999046325684 -25.200000762939453
v 16.799999237060547 12.699999809265137 -25.200000762939453
v 8.3999996185302734 6.3499999046325684 -25.200000762939453
v 8.3999996185302734 12.699999809265137 -25.200000762939453
f 835 833 839 837
f 840 834 836 838
f 833 835 836 834
f 835 837 838 836
f 837 839 840 838
f 839 833 834 840
