# Rhino

g object_1
v 0 12.699999809265137 -58.799999237060547
v 0 19.049999237060547 -58.799999237060547
v 8.3999996185302734 12.699999809265137 -58.799999237060547
v 8.3999996185302734 19.049999237060547 -58.799999237060547
v 8.3999996185302734 12.699999809265137 -67.199996948242188
v 8.3999996185302734 19.049999237060547 -67.199996948242188
v 0 12.699999809265137 -67.199996948242188
v 0 19.049999237060547 -67.199996948242188
f 3 1 7 5
f 8 2 4 6
f 1 3 4 2
f 3 5 6 4
f 5 7 8 6
f 7 1 2 8
g object_2
v 50.400001525878906 12.699999809265137 -58.799999237060547
v 50.400001525878906 19.049999237060547 -58.799999237060547
v 58.799999237060547 12.699999809265137 -58.799999237060547
v 58.799999237060547 19.049999237060547 -58.799999237060547
v 58.799999237060547 12.699999809265137 -67.199996948242188
v 58.799999237060547 19.049999237060547 -67.199996948242188
v 50.400001525878906 12.699999809265137 -67.199996948242188
v 50.400001525878906 19.049999237060547 -67.199996948242188
f 11 9 15 13
f 16 10 12 14
f 9 11 12 10
f 11 13 14 12
f 13 15 16 14
f 15 9 10 16
g object_3
v 0 12.699999809265137 -67.199996948242188
v 0 19.049999237060547 -67.199996948242188
v 8.3999996185302734 12.699999809265137 -67.199996948242188
v 8.3999996185302734 19.049999237060547 -67.199996948242188
v 8.3999996185302734 12.699999809265137 -75.599998474121094
v 8.3999996185302734 19.049999237060547 -75.599998474121094
v 0 12.699999809265137 -75.599998474121094
v 0 19.049999237060547 -75.599998474121094
f 19 17 23 21
f 24 18 20 22
f 17 19 20 18
f 19 21 22 20
f 21 23 24 22
f 23 17 18 24
g object_4
v 50.400001525878906 12.699999809265137 -67.199996948242188
v 50.400001525878906 19.049999237060547 -67.199996948242188
v 58.799999237060547 12.699999809265137 -67.199996948242188
v 58.799999237060547 19.049999237060547 -67.199996948242188
v 58.799999237060547 12.699999809265137 -75.599998474121094
v 58.799999237060547 19.049999237060547 -75.599998474121094
v 50.400001525878906 12.699999809265137 -75.599998474121094
v 50.400001525878906 19.049999237060547 -75.599998474121094
f 27 25 31 29
f 32 26 28 30
f 25 27 28 26
f 27 29 30 28
f 29 31 32 30
f 31 25 26 32
g object_5
v 42 12.699999809265137 -67.199996948242188
v 42 19.049999237060547 -67.199996948242188
v 50.400001525878906 12.699999809265137 -67.199996948242188
v 50.400001525878906 19.049999237060547 -67.199996948242188
v 50.400001525878906 12.699999809265137 -75.599998474121094
v 50.400001525878906 19.049999237060547 -75.599998474121094
v 42 12.699999809265137 -75.599998474121094
v 42 19.049999237060547 -75.599998474121094
f 35 33 39 37
f 40 34 36 38
f 33 35 36 34
f 35 37 38 36
f 37 39 40 38
f 39 33 34 40
g object_6
v 33.599998474121094 12.699999809265137 -67.199996948242188
v 33.599998474121094 19.049999237060547 -67.199996948242188
v 42 12.699999809265137 -67.199996948242188
v 42 19.049999237060547 -67.199996948242188
v 42 12.699999809265137 -75.599998474121094
v 42 19.049999237060547 -75.599998474121094
v 33.599998474121094 12.699999809265137 -75.599998474121094
v 33.599998474121094 19.049999237060547 -75.599998474121094
f 43 41 47 45
f 48 42 44 46
f 41 43 44 42
f 43 45 46 44
f 45 47 48 46
f 47 41 42 48
g object_7
v 16.799999237060547 12.699999809265137 -67.199996948242188
v 16.799999237060547 19.049999237060547 -67.199996948242188
v 25.200000762939453 12.699999809265137 -67.199996948242188
v 25.200000762939453 19.049999237060547 -67.199996948242188
v 25.200000762939453 12.699999809265137 -75.599998474121094
v 25.200000762939453 19.049999237060547 -75.599998474121094
v 16.799999237060547 12.699999809265137 -75.599998474121094
v 16.799999237060547 19.049999237060547 -75.599998474121094
f 51 49 55 53
f 56 50 52 54
f 49 51 52 50
f 51 53 54 52
f 53 55 56 54
f 55 49 50 56
g object_8
v 8.3999996185302734 12.699999809265137 -67.199996948242188
v 8.3999996185302734 19.049999237060547 -67.199996948242188
v 16.799999237060547 12.699999809265137 -67.199996948242188
v 16.799999237060547 19.049999237060547 -67.199996948242188
v 16.799999237060547 12.699999809265137 -75.599998474121094
v 16.799999237060547 19.049999237060547 -75.599998474121094
v 8.3999996185302734 12.699999809265137 -75.599998474121094
v 8.3999996185302734 19.049999237060547 -75.599998474121094
f 59 57 63 61
f 64 58 60 62
f 57 59 60 58
f 59 61 62 60
f 61 63 64 62
f 63 57 58 64
g object_9
v 0 12.699999809265137 -75.599998474121094
v 0 19.049999237060547 -75.599998474121094
v 8.3999996185302734 12.699999809265137 -75.599998474121094
v 8.3999996185302734 19.049999237060547 -75.599998474121094
v 8.3999996185302734 12.699999809265137 -84
v 8.3999996185302734 19.049999237060547 -84
v 0 12.699999809265137 -84
v 0 19.049999237060547 -84
f 67 65 71 69
f 72 66 68 70
f 65 67 68 66
f 67 69 70 68
f 69 71 72 70
f 71 65 66 72
g object_10
v 50.400001525878906 12.699999809265137 -75.599998474121094
v 50.400001525878906 19.049999237060547 -75.599998474121094
v 58.799999237060547 12.699999809265137 -75.599998474121094
v 58.799999237060547 19.049999237060547 -75.599998474121094
v 58.799999237060547 12.699999809265137 -84
v 58.799999237060547 19.049999237060547 -84
v 50.400001525878906 12.699999809265137 -84
v 50.400001525878906 19.049999237060547 -84
f 75 73 79 77
f 80 74 76 78
f 73 75 76 74
f 75 77 78 76
f 77 79 80 78
f 79 73 74 80
g object_11
v 42 12.699999809265137 -75.599998474121094
v 42 19.049999237060547 -75.599998474121094
v 50.400001525878906 12.699999809265137 -75.599998474121094
v 50.400001525878906 19.049999237060547 -75.599998474121094
v 50.400001525878906 12.699999809265137 -84
v 50.400001525878906 19.049999237060547 -84
v 42 12.699999809265137 -84
v 42 19.049999237060547 -84
f 83 81 87 85
f 88 82 84 86
f 81 83 84 82
f 83 85 86 84
f 85 87 88 86
f 87 81 82 88
g object_12
v 33.599998474121094 12.699999809265137 -75.599998474121094
v 33.599998474121094 19.049999237060547 -75.599998474121094
v 42 12.699999809265137 -75.599998474121094
v 42 19.049999237060547 -75.599998474121094
v 42 12.699999809265137 -84
v 42 19.049999237060547 -84
v 33.599998474121094 12.699999809265137 -84
v 33.599998474121094 19.049999237060547 -84
f 91 89 95 93
f 96 90 92 94
f 89 91 92 90
f 91 93 94 92
f 93 95 96 94
f 95 89 90 96
g object_13
v 25.200000762939453 12.699999809265137 -75.599998474121094
v 25.200000762939453 19.049999237060547 -75.599998474121094
v 33.599998474121094 12.699999809265137 -75.599998474121094
v 33.599998474121094 19.049999237060547 -75.599998474121094
v 33.599998474121094 12.699999809265137 -84
v 33.599998474121094 19.049999237060547 -84
v 25.200000762939453 12.699999809265137 -84
v 25.200000762939453 19.049999237060547 -84
f 99 97 103 101
f 104 98 100 102
f 97 99 100 98
f 99 101 102 100
f 101 103 104 102
f 103 97 98 104
g object_14
v 16.799999237060547 12.699999809265137 -75.599998474121094
v 16.799999237060547 19.049999237060547 -75.599998474121094
v 25.200000762939453 12.699999809265137 -75.599998474121094
v 25.200000762939453 19.049999237060547 -75.599998474121094
v 25.200000762939453 12.699999809265137 -84
v 25.200000762939453 19.049999237060547 -84
v 16.799999237060547 12.699999809265137 -84
v 16.799999237060547 19.049999237060547 -84
f 107 105 111 109
f 112 106 108 110
f 105 107 108 106
f 107 109 110 108
f 109 111 112 110
f 111 105 106 112
g object_15
v 8.3999996185302734 12.699999809265137 -75.599998474121094
v 8.3999996185302734 19.049999237060547 -75.599998474121094
v 16.799999237060547 12.699999809265137 -75.599998474121094
v 16.799999237060547 19.049999237060547 -75.599998474121094
v 16.799999237060547 12.699999809265137 -84
v 16.799999237060547 19.049999237060547 -84
v 8.3999996185302734 12.699999809265137 -84
v 8.3999996185302734 19.049999237060547 -84
f 115 113 119 117
f 120 114 116 118
f 113 115 116 114
f 115 117 118 116
f 117 119 120 118
f 119 113 114 120
g object_16
v 42 12.699999809265137 -67.199996948242188
v 42 19.049999237060547 -67.199996948242188
v 42 12.699999809265137 -58.799999237060547
v 42 19.049999237060547 -58.799999237060547
v 50.400001525878906 12.699999809265137 -58.799999237060547
v 50.400001525878906 19.049999237060547 -58.799999237060547
v 50.400001525878906 12.699999809265137 -67.199996948242188
v 50.400001525878906 19.049999237060547 -67.199996948242188
f 121 127 125 123
f 126 128 122 124
f 121 123 124 122
f 123 125 126 124
f 125 127 128 126
f 127 121 122 128
g object_17
v 8.3999996185302734 12.699999809265137 -67.199996948242188
v 8.3999996185302734 19.049999237060547 -67.199996948242188
v 8.3999996185302734 12.699999809265137 -58.799999237060547
v 8.3999996185302734 19.049999237060547 -58.799999237060547
v 16.799999237060547 12.699999809265137 -58.799999237060547
v 16.799999237060547 19.049999237060547 -58.799999237060547
v 16.799999237060547 12.699999809265137 -67.199996948242188
v 16.799999237060547 19.049999237060547 -67.199996948242188
f 129 135 133 131
f 134 136 130 132
f 129 131 132 130
f 131 133 134 132
f 133 135 136 134
f 135 129 130 136
g object_18
v 33.599998474121094 12.699999809265137 -58.799999237060547
v 33.599998474121094 19.049999237060547 -58.799999237060547
v 33.599998474121094 12.699999809265137 -50.400001525878906
v 33.599998474121094 19.049999237060547 -50.400001525878906
v 42 12.699999809265137 -50.400001525878906
v 42 19.049999237060547 -50.400001525878906
v 42 12.699999809265137 -58.799999237060547
v 42 19.049999237060547 -58.799999237060547
f 137 143 141 139
f 142 144 138 140
f 137 139 140 138
f 139 141 142 140
f 141 143 144 142
f 143 137 138 144
g object_19
v 25.200000762939453 12.699999809265137 -58.799999237060547
v 25.200000762939453 19.049999237060547 -58.799999237060547
v 25.200000762939453 12.699999809265137 -50.400001525878906
v 25.200000762939453 19.049999237060547 -50.400001525878906
v 33.599998474121094 12.699999809265137 -50.400001525878906
v 33.599998474121094 19.049999237060547 -50.400001525878906
v 33.599998474121094 12.699999809265137 -58.799999237060547
v 33.599998474121094 19.049999237060547 -58.799999237060547
f 145 151 149 147
f 150 152 146 148
f 145 147 148 146
f 147 149 150 148
f 149 151 152 150
f 151 145 146 152
g object_20
v 16.799999237060547 12.699999809265137 -58.799999237060547
v 16.799999237060547 19.049999237060547 -58.799999237060547
v 16.799999237060547 12.699999809265137 -50.400001525878906
v 16.799999237060547 19.049999237060547 -50.400001525878906
v 25.200000762939453 12.699999809265137 -50.400001525878906
v 25.200000762939453 19.049999237060547 -50.400001525878906
v 25.200000762939453 12.699999809265137 -58.799999237060547
v 25.200000762939453 19.049999237060547 -58.799999237060547
f 153 159 157 155
f 158 160 154 156
f 153 155 156 154
f 155 157 158 156
f 157 159 160 158
f 159 153 154 160
g object_21
v 33.599998474121094 12.699999809265137 -42
v 33.599998474121094 19.049999237060547 -42
v 33.599998474121094 12.699999809265137 -33.599998474121094
v 33.599998474121094 19.049999237060547 -33.599998474121094
v 42 12.699999809265137 -33.599998474121094
v 42 19.049999237060547 -33.599998474121094
v 42 12.699999809265137 -42
v 42 19.049999237060547 -42
f 161 167 165 163
f 166 168 162 164
f 161 163 164 162
f 163 165 166 164
f 165 167 168 166
f 167 161 162 168
g object_22
v 25.200000762939453 12.699999809265137 -42
v 25.200000762939453 19.049999237060547 -42
v 25.200000762939453 12.699999809265137 -33.599998474121094
v 25.200000762939453 19.049999237060547 -33.599998474121094
v 33.599998474121094 12.699999809265137 -33.599998474121094
v 33.599998474121094 19.049999237060547 -33.599998474121094
v 33.599998474121094 12.699999809265137 -42
v 33.599998474121094 19.049999237060547 -42
f 169 175 173 171
f 174 176 170 172
f 169 171 172 170
f 171 173 174 172
f 173 175 176 174
f 175 169 170 176
g object_23
v 16.799999237060547 12.699999809265137 -42
v 16.799999237060547 19.049999237060547 -42
v 16.799999237060547 12.699999809265137 -33.599998474121094
v 16.799999237060547 19.049999237060547 -33.599998474121094
v 25.200000762939453 12.699999809265137 -33.599998474121094
v 25.200000762939453 19.049999237060547 -33.599998474121094
v 25.200000762939453 12.699999809265137 -42
v 25.200000762939453 19.049999237060547 -42
f 177 183 181 179
f 182 184 178 180
f 177 179 180 178
f 179 181 182 180
f 181 183 184 182
f 183 177 178 184
